<?xml version="1.0" standalone="no"?>
<!DOCTYPE svg PUBLIC "-//W3C//DTD SVG 20010904//EN"
 "http://www.w3.org/TR/2001/REC-SVG-20010904/DTD/svg10.dtd">
<svg version="1.0" xmlns="http://www.w3.org/2000/svg"
 width="640.000000pt" height="640.000000pt" viewBox="0 0 640.000000 640.000000"
 preserveAspectRatio="xMidYMid meet">
<metadata>
Created by potrace 1.14, written by Peter Selinger 2001-2017
</metadata>
<g transform="translate(0.000000,640.000000) scale(0.100000,-0.100000)"
fill="#000000" stroke="none">
<path d="M0 3200 l0 -3200 3200 0 3200 0 0 3200 0 3200 -3200 0 -3200 0 0
-3200z m2974 2444 c9 -3 16 -14 16 -25 0 -16 -10 -19 -92 -21 l-93 -3 -3 -52
-3 -53 95 0 c96 0 96 0 96 -25 l0 -25 -109 0 c-73 0 -112 4 -117 12 -4 6 -9
44 -12 83 -4 64 -2 75 17 94 18 18 33 21 105 21 46 0 91 -3 100 -6z m287 -4
c17 -9 19 -22 19 -105 0 -88 -1 -95 -20 -95 -17 0 -20 7 -20 41 0 33 -3 40
-16 35 -9 -3 -42 -6 -75 -6 l-59 0 0 -35 c0 -28 -4 -35 -20 -35 -24 0 -38 60
-21 96 10 23 15 24 96 24 78 0 85 2 85 20 0 19 -7 20 -96 20 -86 0 -95 2 -92
18 2 13 17 18 68 23 110 10 131 9 151 -1z m319 -19 c16 -31 12 -66 -11 -95
-20 -25 -26 -27 -88 -24 -58 3 -66 5 -66 23 0 17 8 20 52 23 53 3 85 24 66 43
-5 5 -41 9 -79 7 l-69 -3 -2 -65 c-1 -36 -2 -71 -2 -77 -1 -7 -10 -13 -21 -13
-19 0 -20 7 -20 93 0 52 3 97 7 100 3 4 55 7 114 7 97 0 109 -2 119 -19z m290
0 c5 -11 10 -47 10 -81 0 -97 -3 -100 -120 -100 -54 0 -105 3 -114 6 -13 5
-16 23 -16 93 0 48 3 91 7 94 3 4 55 7 114 7 97 0 109 -2 119 -19z m287 4 c9
-25 -1 -28 -92 -26 l-85 2 0 -55 0 -56 91 0 c88 0 90 -1 87 -22 -3 -22 -8 -23
-102 -26 -64 -2 -103 1 -112 9 -18 15 -20 159 -2 177 8 8 47 12 110 12 80 0
100 -3 105 -15z m-462 -265 c3 -5 -3 -10 -15 -10 -12 0 -18 5 -15 10 3 6 10
10 15 10 5 0 12 -4 15 -10z m-396 -31 c-14 -9 -7 -13 36 -22 11 -3 3 -3 -18
-2 -21 2 -41 6 -44 9 -9 9 18 36 29 30 6 -4 5 -10 -3 -15z m306 1 c-3 -5 -25
-9 -48 -9 l-42 2 40 7 c22 4 44 8 48 9 5 0 5 -3 2 -9z m-156 -22 c28 -8 -11
-15 -49 -7 -31 6 -32 7 -7 8 15 0 27 7 27 14 0 8 3 9 8 1 4 -6 14 -13 21 -16z
m58 6 c-3 -3 -12 -4 -19 -1 -8 3 -5 6 6 6 11 1 17 -2 13 -5z m329 -9 c17 -13
16 -13 -16 -5 -19 5 -44 11 -55 13 -11 3 -5 5 16 6 19 0 44 -6 55 -14z m-191
-27 c-4 -18 -2 -52 3 -75 11 -50 1 -56 -42 -22 -33 26 -36 79 -6 109 32 32 52
26 45 -12z m99 10 c23 -33 20 -75 -9 -103 -13 -14 -28 -25 -33 -25 -6 0 -9 34
-9 75 0 65 3 75 18 75 10 0 25 -10 33 -22z m142 -55 c18 -21 33 -47 34 -59 0
-28 -36 -60 -89 -79 -51 -18 -51 -18 -51 -7 0 5 19 14 41 21 57 17 93 54 79
81 -8 14 -21 20 -48 20 -20 0 -44 5 -52 11 -11 8 -5 9 23 4 57 -9 46 19 -18
44 -30 11 -30 11 9 7 28 -4 47 -15 72 -43z m-374 20 c-39 -16 -33 -33 10 -33
44 0 29 -10 -28 -18 -34 -5 -50 -12 -52 -24 -5 -24 33 -54 84 -67 24 -6 44
-16 44 -21 0 -13 -1 -13 -65 11 -85 32 -101 71 -52 126 10 12 17 25 14 30 -3
4 13 8 36 9 l41 0 -32 -13z m1181 -30 c-7 -2 -19 -2 -25 0 -7 3 -2 5 12 5 14
0 19 -2 13 -5z m-1809 -18 c4 -13 -7 -15 -69 -15 -41 0 -75 4 -75 9 0 14 20
19 81 20 42 1 58 -3 63 -14z m73 -11 c-3 -3 -12 -4 -19 -1 -8 3 -5 6 6 6 11 1
17 -2 13 -5z m-47 -236 l-5 -233 -170 0 -170 0 -3 199 c-1 110 0 197 3 194 4
-3 6 -75 6 -159 -1 -84 2 -168 5 -186 l6 -33 157 2 156 3 2 179 c2 134 0 182
-10 188 -9 6 -9 8 1 8 7 0 12 14 12 35 0 19 3 35 8 35 4 0 5 -105 2 -232z
m1790 208 c0 -9 -9 -12 -27 -9 -24 3 -25 2 -8 -6 18 -9 18 -10 -7 -10 -14 -1
-28 3 -30 8 -1 5 -70 11 -153 13 l-150 3 -3 -178 -2 -178 190 3 c104 2 190 0
190 -4 0 -5 -6 -8 -12 -9 -23 -2 -373 3 -375 5 -4 3 -6 183 -5 284 l2 92 195
0 c158 0 195 -3 195 -14z m-1960 -10 c0 -11 -19 -15 -25 -6 -3 5 1 10 9 10 9
0 16 -2 16 -4z m1009 -12 c70 -14 15 -54 -74 -54 -88 0 -135 28 -82 50 26 10
112 13 156 4z m-49 -84 c0 -5 -12 -10 -26 -10 -14 0 -23 4 -19 10 3 6 15 10
26 10 10 0 19 -4 19 -10z m52 -47 c2 -5 1 -60 -2 -123 l-6 -115 -2 118 -2 117
-30 0 -30 0 0 -120 0 -120 43 0 c74 0 81 -12 85 -140 4 -130 -1 -139 -83 -140
-62 0 -75 11 -75 67 0 25 -5 43 -11 43 -7 0 -9 -9 -5 -22 6 -26 -14 -128 -26
-128 -5 0 -8 65 -8 145 l0 144 -95 92 c-52 51 -93 94 -90 97 6 7 199 -178 203
-195 6 -23 30 -14 37 14 3 15 6 68 5 118 -3 166 -7 155 44 155 25 0 46 -3 48
-7z m-522 -87 c44 -43 58 -62 50 -71 -7 -9 19 -42 103 -124 62 -62 120 -116
127 -121 8 -5 11 -12 8 -16 -4 -3 -42 24 -84 62 -43 38 -75 64 -72 59 4 -6 3
-17 -2 -25 -6 -10 -2 -22 12 -37 12 -13 17 -23 12 -23 -5 0 -45 34 -89 75 -44
41 -84 75 -90 75 -5 0 -4 -4 3 -9 11 -7 11 -9 -2 -14 -9 -4 -27 6 -46 24 -29
29 -54 32 -44 5 3 -8 -4 -16 -17 -19 -19 -5 -21 -10 -14 -44 3 -21 11 -42 16
-47 12 -13 12 -29 -1 -21 -5 3 -10 -2 -10 -13 0 -27 77 -112 101 -112 11 0 17
5 14 10 -10 16 11 12 25 -5 16 -20 27 -19 33 3 4 13 5 12 6 -5 1 -15 9 -25 26
-29 14 -3 25 -10 25 -14 0 -5 12 -22 26 -39 19 -22 34 -31 57 -31 23 0 28 -3
20 -11 -8 -8 -74 -11 -210 -10 l-198 2 4 -51 c2 -41 6 -50 20 -48 9 2 18 16
21 36 3 18 8 33 13 32 4 0 61 0 126 0 112 0 119 -1 114 -19 -3 -10 0 -22 6
-25 6 -4 11 -1 11 6 0 7 4 19 9 27 7 11 14 10 37 -5 15 -11 37 -17 47 -16 14
3 18 -1 14 -10 -3 -8 9 -24 29 -38 33 -22 42 -49 19 -57 -6 -2 -37 24 -70 57
-33 33 -63 60 -66 60 -3 0 -6 -10 -6 -22 0 -13 0 -45 -1 -73 l-2 -50 -138 0
-137 0 -3 41 c-3 36 -6 41 -23 37 -13 -4 -18 -11 -15 -20 3 -8 6 -30 6 -50 0
-27 3 -34 15 -29 9 3 15 0 15 -9 0 -22 108 -21 138 1 28 19 33 16 25 -14 -3
-14 -13 -22 -27 -23 -21 0 -21 0 2 -9 41 -17 23 -27 -48 -25 -62 1 -70 -1 -70
-17 0 -10 -7 -18 -16 -18 -11 0 -14 6 -9 20 4 11 2 20 -4 20 -7 0 -11 -42 -11
-121 l0 -121 92 3 c62 2 93 -1 95 -8 5 -15 -25 -19 -124 -15 l-83 3 0 132 0
132 -125 0 -125 0 0 26 c0 15 -8 37 -19 50 -10 13 -21 34 -25 46 -12 39 -66
63 -140 63 l-66 0 2 203 c1 111 3 176 5 145 5 -69 28 -81 38 -20 4 20 8 42 10
48 3 11 312 30 322 20 3 -3 5 -49 4 -102 -2 -87 0 -99 20 -120 18 -19 24 -21
35 -10 13 13 14 40 1 52 -4 4 -7 80 -7 169 l0 162 56 61 c50 56 60 62 94 62
21 0 42 5 45 11 10 15 18 10 85 -55z m950 39 c0 -11 -124 -19 -149 -10 -13 5
-14 7 -1 16 19 12 150 7 150 -6z m-1180 -5 c0 -5 -4 -10 -10 -10 -5 0 -10 5
-10 10 0 6 5 10 10 10 6 0 10 -4 10 -10z m-750 -40 c0 -11 -4 -20 -9 -20 -5 0
-7 9 -4 20 3 11 7 20 9 20 2 0 4 -9 4 -20z m57 -12 c-3 -7 -5 -2 -5 12 0 14 2
19 5 13 2 -7 2 -19 0 -25z m1961 16 c22 -6 22 -7 22 -214 l0 -208 23 4 c16 3
14 1 -8 -10 -16 -9 -35 -15 -42 -16 -13 0 -63 -61 -63 -75 0 -5 10 2 21 14 22
23 78 51 101 51 7 0 -7 -11 -31 -23 -53 -27 -84 -65 -79 -98 3 -22 6 -20 38
25 40 56 61 66 134 66 48 0 153 -27 143 -36 -2 -2 -23 3 -47 11 -23 8 -62 15
-86 15 -77 0 -112 -23 -154 -102 -23 -44 -26 -60 -6 -32 13 17 14 14 5 -26
-12 -52 -5 -109 18 -154 15 -29 15 -30 0 -17 -9 7 -22 32 -29 55 -6 22 -20 53
-30 68 -37 53 -41 147 -9 206 11 21 10 22 -38 22 l-49 0 -3 -164 c-4 -144 -6
-166 -23 -185 -11 -12 -21 -19 -24 -16 -3 3 3 14 13 25 18 20 18 20 -95 20
-62 0 -111 2 -109 4 3 3 106 11 212 16 4 0 7 4 7 8 0 5 -27 6 -60 4 -44 -3
-61 -1 -65 9 -9 27 -11 290 -1 296 5 3 68 6 140 6 l131 0 -120 6 -120 6 4 220
c2 121 6 224 9 229 5 9 231 1 270 -10z m-862 -41 c47 -42 70 -83 46 -83 -4 0
-37 29 -72 65 -77 78 -58 91 26 18z m-1365 -331 l2 -342 47 0 c44 0 48 2 43
21 -5 19 -4 20 16 8 22 -14 24 -28 23 -144 -1 -45 1 -54 7 -34 22 67 25 69
116 69 50 0 85 -4 85 -10 0 -6 -31 -9 -75 -8 -76 1 -105 -10 -105 -39 0 -12
17 -14 95 -11 69 2 96 0 100 -9 3 -10 -22 -14 -103 -15 l-107 -2 103 -3 c57
-2 100 -8 97 -13 -3 -5 -45 -7 -94 -4 -55 3 -92 0 -96 -6 -4 -6 25 -10 81 -10
110 0 104 -11 -7 -14 -78 -2 -85 -4 -96 -26 -17 -35 -22 -14 -25 110 -4 134
-4 134 -170 125 -82 -5 -118 -3 -118 4 0 7 21 11 50 11 32 0 49 4 48 11 -2 6
3 14 10 16 6 3 12 -2 12 -11 0 -11 9 -16 26 -16 l27 0 -8 73 c-4 39 -6 88 -5
107 1 19 4 142 7 273 2 131 6 237 8 235 2 -2 5 -158 6 -346z m-311 298 c0 -5
-4 -10 -10 -10 -5 0 -10 5 -10 10 0 6 5 10 10 10 6 0 10 -4 10 -10z m47 -6
c-3 -3 -12 -4 -19 -1 -8 3 -5 6 6 6 11 1 17 -2 13 -5z m751 -50 c-4 -3 -101
-5 -216 -4 -194 1 -211 -1 -215 -17 -4 -14 -5 -13 -6 5 l-1 22 222 0 c122 0
219 -3 216 -6z m2230 -16 c-3 -8 -54 -11 -169 -12 l-164 -1 -6 -105 -5 -105
-2 108 -2 107 -57 2 c-32 1 37 5 152 8 116 3 221 7 233 8 14 1 22 -3 20 -10z
m-2758 -48 c0 -13 -7 -20 -20 -20 -13 0 -20 7 -20 20 0 13 7 20 20 20 13 0 20
-7 20 -20z m97 -47 c-2 -16 -4 -5 -4 22 0 28 2 40 4 28 2 -13 2 -35 0 -50z
m-97 -3 c0 -13 -7 -20 -20 -20 -13 0 -20 7 -20 20 0 13 7 20 20 20 13 0 20 -7
20 -20z m1850 5 c0 -8 -7 -15 -15 -15 -16 0 -20 12 -8 23 11 12 23 8 23 -8z
m115 -45 c0 -12 -13 -15 -58 -15 l-57 0 0 -53 c0 -37 4 -54 15 -58 20 -8 9
-24 -16 -24 -14 0 -19 7 -20 28 -1 15 -2 53 -4 85 l-3 58 72 -3 c55 -2 71 -6
71 -18z m-575 -48 c0 -4 -9 -13 -20 -20 -22 -13 -27 -3 -8 16 14 14 28 16 28
4z m340 -122 c17 -9 19 -20 16 -71 -2 -33 -6 -62 -10 -66 -3 -3 -22 -7 -43 -8
-20 -2 -39 -8 -41 -14 -7 -21 -29 -11 -29 14 0 14 2 25 6 25 3 0 6 26 6 57 l0
58 35 6 c19 4 36 7 38 8 2 0 12 -4 22 -9z m148 -127 l-2 -118 -3 108 -4 107
-35 0 -36 0 4 -122 3 -123 28 -3 c39 -5 33 -22 -8 -22 l-35 0 0 145 0 145 45
0 45 0 -2 -117z m-304 85 c19 -27 21 -98 3 -122 -16 -22 -55 -16 -105 14 -31
19 -41 50 -24 76 8 13 82 53 99 54 6 0 19 -10 27 -22z m-1687 -35 c27 -30 30
-53 7 -53 -11 0 -14 6 -9 20 4 13 1 22 -9 26 -15 6 -31 34 -19 34 4 0 18 -12
30 -27z m-97 -20 c0 -16 3 -39 7 -52 5 -19 2 -22 -13 -19 -12 2 -18 11 -17 23
1 11 3 32 5 48 1 15 6 27 10 27 4 0 8 -12 8 -27z m305 -59 c9 -19 15 -37 13
-40 -2 -2 -14 17 -26 42 -12 25 -18 43 -13 40 5 -3 16 -22 26 -42z m2672 -144
c12 -32 39 -67 97 -125 l81 -79 -62 42 c-45 30 -75 62 -112 117 -28 42 -51 86
-51 98 0 12 -2 40 -5 62 -5 38 -5 38 15 -15 12 -30 29 -75 37 -100z m-142 70
c10 -11 16 -20 13 -20 -3 0 -13 9 -23 20 -10 11 -16 20 -13 20 3 0 13 -9 23
-20z m-2920 -10 c3 -5 1 -10 -4 -10 -6 0 -11 5 -11 10 0 6 2 10 4 10 3 0 8 -4
11 -10z m125 -45 c0 -49 -16 -58 -54 -30 -19 14 -19 15 -1 15 18 0 18 1 -1 15
-19 15 -19 15 0 30 11 8 28 15 38 15 15 0 18 -8 18 -45z m2350 10 c0 -29 -5
-37 -26 -45 -40 -16 -44 -13 -44 35 0 45 0 45 35 45 33 0 35 -2 35 -35z m362
-15 c10 0 22 -10 27 -22 7 -18 2 -30 -21 -57 -40 -46 -55 -78 -41 -92 8 -8 19
0 38 29 28 43 47 52 108 52 40 0 49 -22 11 -28 -38 -6 -75 -25 -85 -44 -10
-18 -9 -19 13 -8 22 11 22 10 4 -4 -11 -9 -23 -16 -28 -16 -4 0 -8 -7 -8 -15
0 -8 5 -15 10 -15 6 0 10 -7 10 -15 0 -11 -11 -15 -40 -15 -35 0 -40 -3 -40
-22 0 -32 -70 86 -77 129 -6 36 42 167 57 158 4 -3 11 3 15 13 6 15 8 15 18
-5 5 -13 19 -23 29 -23z m-2842 20 c0 -5 -4 -10 -9 -10 -6 0 -13 5 -16 10 -3
6 1 10 9 10 9 0 16 -4 16 -10z m53 -57 c5 -26 4 -26 -9 -9 -7 10 -11 23 -8 27
8 14 11 11 17 -18z m1152 -63 c58 0 84 -4 87 -12 2 -7 1 -49 -2 -93 l-7 -80
-1 88 -2 89 -100 -3 c-73 -2 -104 1 -113 10 -10 11 -6 13 22 7 18 -3 71 -6
116 -6z m-98 -72 c6 10 14 13 19 8 5 -5 2 -13 -8 -19 -14 -10 -14 -13 8 -30
13 -10 24 -23 24 -28 0 -9 -33 15 -115 87 -26 22 -24 22 16 -4 41 -27 46 -29
56 -14z m-80 -26 c3 -23 -20 -31 -32 -12 -3 6 -2 10 4 10 6 0 8 7 4 16 -4 11
-2 15 7 12 7 -2 15 -14 17 -26z m2242 -138 c19 -92 48 -167 95 -244 l27 -45
-26 30 c-60 68 -125 236 -125 319 0 58 9 40 29 -60z m-309 78 c0 -5 -9 -17
-19 -26 -23 -21 -38 -4 -15 18 17 17 34 21 34 8z m-685 -33 c6 -26 10 -30 30
-25 13 3 27 2 30 -4 4 -6 -7 -13 -24 -16 -31 -7 -36 -18 -25 -60 4 -13 19 -25
42 -31 l37 -10 -55 -2 c-30 0 -62 4 -70 9 -13 9 -13 10 0 11 8 1 18 1 23 0 4
0 7 2 7 5 0 10 -23 49 -32 55 -13 9 -16 88 -3 93 24 10 34 4 40 -25z m155 -9
c0 -22 -4 -40 -10 -40 -5 0 -10 9 -10 20 0 12 -7 20 -17 21 -14 0 -15 2 -3 6
8 3 19 12 23 19 13 23 17 16 17 -26z m-3030 16 c-19 -7 -69 -15 -110 -18 l-75
-6 70 18 c39 10 88 18 110 18 l40 1 -35 -13z m-310 -6 c0 -5 -5 -10 -11 -10
-5 0 -7 5 -4 10 3 6 8 10 11 10 2 0 4 -4 4 -10z m2098 -25 c-3 -3 -9 2 -12 12
-6 14 -5 15 5 6 7 -7 10 -15 7 -18z m-1981 -1 c-3 -3 -12 -4 -19 -1 -8 3 -5 6
6 6 11 1 17 -2 13 -5z m3819 -11 c27 -28 91 -174 97 -225 6 -40 2 -56 -23
-103 -17 -32 -30 -61 -30 -66 0 -5 -16 -24 -36 -43 -20 -19 -33 -39 -30 -45
12 -19 -40 -12 -67 9 -14 11 -29 35 -32 53 -4 17 -13 42 -21 54 -10 16 -11 23
-1 31 20 16 41 20 59 11 14 -8 19 -2 27 28 6 21 11 46 11 57 0 15 -3 16 -15 6
-9 -8 -28 -10 -49 -6 -19 4 -46 4 -61 0 -20 -5 -24 -11 -19 -26 4 -15 2 -19
-7 -16 -8 3 -14 20 -15 40 -1 45 -10 58 -38 58 -13 0 -31 9 -41 21 -19 20 -18
21 5 64 26 48 37 54 20 11 -17 -44 -13 -58 13 -51 22 7 22 7 2 -9 l-20 -15 20
-2 c11 -1 27 -2 35 -3 21 -1 41 -16 35 -26 -9 -14 34 -18 46 -4 6 8 9 14 6 14
-3 0 -2 12 2 28 5 15 5 37 0 49 -5 13 -4 35 2 52 11 31 53 66 69 56 5 -3 11
-1 15 5 9 15 21 12 41 -7z m-1352 -50 c-2 -46 1 -53 17 -53 31 0 22 -18 -16
-30 -19 -6 -41 -20 -48 -30 -21 -30 -34 -10 -41 69 -8 88 1 103 53 99 l36 -3
-1 -52z m-449 37 c3 -6 -1 -7 -9 -4 -18 7 -21 14 -7 14 6 0 13 -4 16 -10z
m3265 -26 c0 -9 -7 -14 -17 -12 -25 5 -28 28 -4 28 12 0 21 -6 21 -16z m-1625
-95 c10 -15 4 -18 -27 -12 -15 3 -25 9 -22 14 7 12 41 11 49 -2z m-395 -33 c0
-3 -4 -8 -10 -11 -5 -3 -10 -1 -10 4 0 6 5 11 10 11 6 0 10 -2 10 -4z m-815
-46 c3 -5 2 -10 -4 -10 -10 0 -15 -13 -26 -67 -6 -29 -4 -32 22 -35 l28 -4
-28 -8 c-16 -5 -32 -5 -37 0 -9 10 20 134 32 134 4 0 10 -4 13 -10z m85 -10
c0 -5 -2 -10 -4 -10 -3 0 -8 5 -11 10 -3 6 -1 10 4 10 6 0 11 -4 11 -10z m94
-32 c18 -36 20 -58 6 -58 -5 0 -10 -7 -10 -15 0 -27 -23 -66 -37 -61 -7 3 -13
2 -13 -2 0 -4 -14 -9 -31 -10 -16 -1 -33 -3 -37 -3 -38 -6 -66 31 -43 54 8 8
11 6 11 -7 0 -9 4 -15 9 -11 5 3 12 2 15 -3 2 -4 19 -9 37 -10 l33 -3 -21 23
c-26 29 -36 78 -17 85 8 3 14 12 14 19 0 14 31 32 57 33 6 1 19 -13 27 -31z
m-2143 -9 c164 -41 208 -65 248 -129 70 -114 132 -295 156 -457 41 -274 -7
-752 -83 -835 -14 -15 -28 -26 -31 -24 -3 2 -5 38 -3 80 3 63 6 76 20 76 11 0
13 3 5 8 -16 10 -4 65 13 58 8 -3 14 1 14 9 0 9 -10 15 -26 15 -24 0 -26 3
-20 33 4 22 3 27 -3 17 -6 -9 -26 -14 -54 -15 -43 0 -44 0 -45 35 -1 19 -7 37
-13 39 -8 2 -7 6 2 12 9 6 10 12 4 17 -5 4 -11 43 -13 87 -5 161 -14 265 -23
259 -5 -3 -9 18 -9 45 0 28 5 51 10 51 6 0 3 11 -6 25 -11 17 -15 37 -11 60 4
21 1 35 -6 38 -18 6 -48 -4 -42 -13 3 -5 1 -11 -5 -15 -15 -9 -12 -25 5 -25
12 0 15 -18 14 -107 -2 -115 -4 -113 -14 10 -5 57 -10 77 -21 77 -8 0 -14 5
-14 11 0 5 -4 7 -10 4 -5 -3 -7 -39 -4 -86 4 -55 2 -79 -5 -75 -5 4 -8 13 -5
20 3 8 1 17 -4 20 -6 3 -13 -2 -16 -11 -6 -14 -9 -15 -15 -4 -6 9 -10 5 -15
-16 -13 -53 -29 -84 -42 -79 -7 3 -15 -2 -18 -10 -3 -8 -10 -14 -16 -14 -6 0
-8 5 -4 12 5 8 -2 9 -24 5 -26 -5 -32 -3 -31 11 0 10 3 12 6 5 3 -8 10 -9 21
-3 9 5 25 11 36 14 14 5 17 12 12 31 -4 15 -2 25 4 25 6 0 8 5 5 10 -4 6 -13
9 -20 8 -8 -2 -20 6 -28 16 -13 18 -15 16 -27 -27 -8 -25 -18 -43 -22 -41 -5
3 -6 10 -3 15 4 5 2 9 -3 9 -11 0 -22 -34 -22 -69 0 -21 4 -23 40 -19 51 5 51
-5 1 -24 -39 -16 -39 -15 -45 8 -6 23 -19 28 -58 25 -53 -6 11 694 73 811 14
25 47 23 190 -13z m1691 -21 c-9 -9 -12 -7 -12 12 0 19 3 21 12 12 9 -9 9 -15
0 -24z m-72 6 c0 -7 -8 -11 -17 -10 -11 0 -17 -5 -15 -14 2 -11 -2 -9 -13 4
-8 10 -12 22 -10 26 8 12 55 6 55 -6z m40 1 c0 -8 -4 -15 -10 -15 -5 0 -10 7
-10 15 0 8 5 15 10 15 6 0 10 -7 10 -15z m1520 -34 c0 -18 -18 -21 -30 -6 -10
13 -9 15 9 15 11 0 21 -4 21 -9z m-2563 -17 c-3 -3 -12 -4 -19 -1 -8 3 -5 6 6
6 11 1 17 -2 13 -5z m3156 -116 l42 -43 -40 -3 c-22 -2 -44 -7 -50 -12 -5 -4
-30 -13 -53 -20 l-44 -11 5 -42 c2 -23 10 -90 18 -149 12 -103 12 -112 -10
-205 -27 -111 -68 -223 -113 -303 -37 -67 -110 -169 -121 -170 -13 0 4 51 46
140 31 68 40 100 44 160 8 112 37 155 77 114 13 -12 16 -12 16 -2 0 8 -5 19
-12 26 -9 9 -9 18 1 38 22 50 25 149 7 282 -10 70 -26 148 -36 174 l-19 47 34
7 c19 3 49 1 69 -6 28 -9 40 -8 63 4 15 8 29 15 31 16 1 0 22 -19 45 -42z
m937 22 c14 -14 20 -16 20 -6 0 10 20 15 78 18 42 3 79 4 82 2 3 -1 4 -24 2
-51 l-4 -48 -76 5 c-60 4 -77 8 -77 20 0 8 -15 19 -32 25 -25 7 -33 15 -33 32
0 28 14 29 40 3z m-2615 -20 c4 -11 3 -34 0 -51 -5 -24 -11 -29 -28 -27 -18 2
-22 9 -20 35 2 24 -2 33 -17 38 -33 11 -22 25 19 25 31 0 41 -4 46 -20z
m-1358 -55 c29 -19 94 -147 125 -245 20 -66 23 -95 23 -240 0 -182 -11 -236
-67 -317 -34 -50 -94 -94 -116 -86 -10 4 -13 2 -8 -5 4 -7 3 -12 -1 -12 -13 0
-34 84 -22 88 5 2 9 10 9 18 0 8 -6 11 -15 8 -8 -4 -15 -1 -15 5 0 6 5 11 10
11 6 0 10 14 10 30 0 17 -5 30 -11 30 -7 0 -9 10 -4 28 11 38 8 64 -6 73 -15
9 -18 404 -5 553 l8 88 31 -6 c17 -4 41 -13 54 -21z m1567 -10 c-19 -29 -27
-31 -44 -10 -10 12 -6 16 22 24 18 5 34 10 36 10 1 1 -5 -10 -14 -24z m1045
-60 c0 -5 -6 1 -14 15 -8 14 -14 30 -14 35 0 6 6 -1 14 -15 8 -14 14 -29 14
-35z m1101 30 c0 -8 -5 -35 -12 -60 -11 -40 -15 -45 -41 -45 -30 0 -30 0 -23
46 3 26 6 53 6 60 0 9 12 14 35 14 24 0 35 -5 35 -15z m-2152 -25 c11 -18 10
-19 -13 -8 -13 6 -22 15 -19 19 8 14 18 11 32 -11z m-447 -7 c13 -16 12 -17
-3 -4 -17 13 -22 21 -14 21 2 0 10 -8 17 -17z m2487 -37 c17 -33 15 -36 -20
-29 -21 4 -28 11 -28 27 0 45 27 46 48 2z m-3390 -86 c35 -92 44 -144 40 -242
-3 -93 -29 -176 -53 -171 -12 3 -20 87 -29 318 -6 155 -5 178 7 165 8 -8 24
-40 35 -70z m1523 -105 c-16 -64 -31 -119 -34 -122 -3 -2 -14 0 -25 6 -12 6
-34 11 -50 11 -16 0 -34 6 -41 13 -13 17 -10 78 4 68 6 -5 32 -15 58 -24 54
-18 55 -17 72 61 6 28 4 32 -14 32 -12 0 -21 3 -21 7 0 13 75 84 78 75 2 -6
-10 -62 -27 -127z m916 83 c-3 -8 -6 -5 -6 6 -1 11 2 17 5 13 3 -3 4 -12 1
-19z m-870 -55 c-3 -10 -5 -4 -5 12 0 17 2 24 5 18 2 -7 2 -21 0 -30z m883
-20 c0 -35 -4 -53 -9 -45 -6 10 -14 6 -34 -18 -22 -25 -67 -49 -67 -35 0 2 23
20 50 40 45 33 50 40 50 76 0 21 2 39 5 39 3 0 5 -26 5 -57z m-960 13 c0 -8
-4 -26 -9 -40 -9 -23 -12 -24 -48 -14 -49 13 -48 12 -26 42 21 29 83 38 83 12z
m123 -43 c-19 -45 -30 -198 -13 -208 5 -3 25 4 43 16 l32 23 -36 -41 c-21 -22
-40 -54 -43 -71 -4 -16 -18 -40 -32 -52 -35 -34 -32 -72 10 -107 42 -35 64
-92 50 -130 -5 -16 -25 -36 -46 -48 l-37 -20 -31 30 c-35 33 -39 55 -10 55 15
0 22 -9 27 -30 3 -19 12 -30 22 -30 21 0 61 28 61 42 0 21 -51 78 -70 78 -25
0 -35 34 -22 79 6 20 17 61 26 92 17 61 22 213 7 252 -5 13 -6 39 -1 58 l8 34
1 -39 1 -39 31 46 c37 57 45 60 22 10z m-908 7 c4 -6 -39 -10 -122 -9 -81 1
-117 4 -98 9 45 12 213 12 220 0z m601 -41 c-18 -41 -21 -26 -4 22 6 18 13 29
15 23 2 -6 -3 -26 -11 -45z m-204 34 c-62 -2 -161 -2 -220 0 -59 1 -8 3 113 3
121 0 169 -2 107 -3z m-691 -31 c-13 -2 -27 0 -32 5 -6 6 3 7 23 4 28 -4 29
-6 9 -9z m1921 -116 c6 -12 6 -16 -1 -11 -7 4 -11 -3 -11 -17 0 -18 -2 -20
-10 -8 -13 20 -13 4 0 -21 11 -20 4 -24 -24 -13 -12 4 -16 20 -16 56 0 44 2
50 19 45 14 -3 18 0 14 17 -3 17 -1 16 8 -4 6 -14 15 -33 21 -44z m-946 38
c-3 -9 -6 -31 -6 -50 0 -19 -4 -34 -10 -34 -5 0 -8 15 -6 33 2 17 4 40 5 50 0
9 6 17 12 17 6 0 8 -7 5 -16z m64 6 c15 0 19 -30 8 -62 -14 -42 -11 -40 -38
-30 -16 6 -24 17 -25 38 -2 39 13 67 32 60 8 -3 18 -6 23 -6z m802 -60 c-5
-83 17 -192 60 -293 74 -177 75 -223 7 -329 -28 -44 -61 -102 -74 -129 -21
-47 -24 -49 -31 -27 -7 22 -7 22 -16 3 -6 -15 -7 -12 -5 14 3 29 2 31 -8 18
-25 -35 -47 -13 -38 37 4 18 1 31 -8 36 -17 11 1 51 83 177 57 88 77 109 79
81 0 -10 2 -10 6 0 2 6 11 12 19 12 18 0 19 -3 -15 71 -16 35 -39 96 -51 134
-13 39 -26 74 -30 78 -11 12 8 -85 25 -134 22 -61 18 -61 -14 -1 l-27 54 -12
-28 c-11 -23 -9 -33 18 -86 17 -32 28 -63 25 -67 -2 -5 -22 -12 -42 -16 -21
-4 -54 -14 -73 -23 l-35 -15 35 -6 34 -6 -49 -55 c-28 -31 -75 -72 -106 -93
-30 -20 -68 -50 -83 -66 -23 -24 -26 -32 -17 -49 8 -15 20 -20 46 -19 44 1 48
-4 37 -44 -8 -33 -9 -34 -58 -31 -47 3 -52 1 -87 -37 -42 -45 -49 -48 -67 -26
-7 8 -21 15 -31 15 -11 0 -19 5 -19 10 0 6 11 8 26 4 35 -9 69 26 96 99 18 49
32 67 89 114 63 52 69 60 80 112 6 33 26 79 48 111 20 30 45 74 55 97 10 23
23 40 27 37 5 -3 9 10 9 28 0 18 16 62 35 98 26 47 35 76 35 112 0 36 15 98
24 98 1 0 0 -31 -2 -70z m-952 -5 c0 -8 -2 -15 -4 -15 -2 0 -6 7 -10 15 -3 8
-1 15 4 15 6 0 10 -7 10 -15z m217 -17 c-3 -7 -5 -2 -5 12 0 14 2 19 5 13 2
-7 2 -19 0 -25z m-2590 0 c-3 -8 -6 -5 -6 6 -1 11 2 17 5 13 3 -3 4 -12 1 -19z
m200 -39 c-4 -16 -3 -18 8 -9 19 16 24 -7 32 -143 4 -80 3 -118 -4 -114 -5 4
-11 39 -12 79 -3 106 -5 113 -29 110 -17 -3 -20 2 -18 30 2 18 4 41 5 51 0 9
6 17 12 17 7 0 9 -9 6 -21z m2247 -46 c7 -23 2 -60 -13 -96 -15 -38 -15 -37
17 -38 18 -1 21 -3 9 -6 -26 -7 -58 4 -85 27 l-23 19 21 41 c22 43 41 50 20 8
-11 -22 -10 -22 4 -4 9 11 16 27 16 36 0 32 25 41 34 13z m-2324 -47 c0 -39
-6 -31 -14 19 -5 29 -4 36 3 25 6 -8 11 -28 11 -44z m2677 -5 c24 -14 9 -13
-52 3 -27 7 -43 15 -35 18 17 6 59 -5 87 -21z m-2803 -6 c6 -16 -10 -20 -38
-9 -24 9 -19 24 8 24 13 0 26 -7 30 -15z m3777 -12 c-5 -10 -24 -31 -41 -48
-17 -16 -36 -38 -42 -48 -8 -16 -7 -17 9 -8 10 5 31 22 46 36 48 46 39 23 -24
-60 -87 -115 -109 -150 -65 -101 l36 40 -15 -43 c-19 -54 -19 -56 0 -75 14
-13 9 -15 -41 -13 l-57 2 -61 -71 c-97 -113 -136 -166 -135 -183 0 -13 2 -13
12 3 7 11 50 68 97 127 75 96 89 108 116 109 38 0 94 -19 94 -31 0 -9 -110
-179 -143 -220 -7 -9 -32 -20 -55 -24 -34 -5 -48 -14 -67 -43 l-25 -37 0 35
c0 21 16 64 40 110 23 41 32 64 21 50 -35 -44 -75 -123 -87 -175 l-12 -50 -1
55 c-1 30 -5 50 -9 44 -4 -6 -15 -13 -24 -17 -14 -5 -18 -1 -18 15 0 25 52
122 85 158 30 32 115 154 211 300 68 103 135 179 157 180 4 0 3 -8 -2 -17z
m-3751 -22 c0 -6 -4 -13 -10 -16 -5 -3 -10 1 -10 9 0 9 5 16 10 16 6 0 10 -4
10 -9z m-701 -87 c12 -45 8 -76 -4 -38 -4 10 -13 34 -21 52 -11 27 -11 32 0
32 8 0 19 -20 25 -46z m783 20 c-24 -17 -39 -14 -27 5 3 6 16 11 28 11 l21 0
-22 -16z m48 -4 c0 -5 -2 -10 -4 -10 -3 0 -8 5 -11 10 -3 6 -1 10 4 10 6 0 11
-4 11 -10z m-252 -12 c-5 -15 -48 -24 -48 -10 0 14 12 22 33 22 10 0 17 -5 15
-12z m1519 -48 c18 0 23 -6 23 -25 0 -28 0 -28 -34 -15 -21 8 -26 7 -26 -6 0
-13 11 -15 58 -13 39 2 65 -2 82 -12 14 -9 68 -40 120 -70 83 -47 103 -54 160
-57 91 -5 90 -4 79 -54 -6 -23 -12 -44 -14 -46 -6 -6 -65 28 -65 39 0 5 15 16
33 24 23 10 26 14 12 14 -36 1 -66 -11 -61 -24 3 -8 -13 -21 -42 -33 -42 -19
-49 -19 -69 -6 -12 8 -31 14 -42 14 -11 0 -22 4 -25 9 -9 14 -60 20 -73 10
-14 -12 -133 -1 -133 12 0 5 24 9 53 9 66 0 88 12 52 28 -31 15 -104 16 -139
2 -16 -6 -26 -6 -26 0 0 14 32 28 79 36 22 4 49 13 58 20 30 22 -143 6 -187
-17 l-35 -19 33 29 c23 20 50 31 85 36 l52 8 -47 15 c-49 16 -61 35 -36 60 13
13 16 11 -67 36 -48 15 -36 15 48 0 32 -5 36 -4 31 11 -4 10 -1 21 7 26 10 6
17 2 23 -16 7 -17 18 -25 33 -25z m-1457 30 c0 -5 -4 -10 -10 -10 -5 0 -10 5
-10 10 0 6 5 10 10 10 6 0 10 -4 10 -10z m3790 -20 c0 -5 -5 -10 -11 -10 -5 0
-7 5 -4 10 3 6 8 10 11 10 2 0 4 -4 4 -10z m-388 -42 c-8 -8 -9 -4 -5 13 4 13
8 18 11 10 2 -7 -1 -18 -6 -23z m718 -30 c0 -9 3 -9 10 2 5 8 10 11 10 5 0
-14 -17 -40 -27 -41 -33 -3 -78 -35 -111 -78 -36 -47 -25 -20 30 75 51 87 52
88 70 69 10 -10 18 -25 18 -32z m20 31 c0 -5 -4 -9 -10 -9 -5 0 -10 7 -10 16
0 8 5 12 10 9 6 -3 10 -10 10 -16z m-3890 -8 c0 -5 3 -18 6 -28 4 -14 4 -15
-4 -4 -8 11 -12 10 -20 -5 -9 -16 -11 -14 -10 14 1 20 6 32 15 32 7 0 13 -4
13 -9z m3510 -31 c0 -5 -5 -10 -11 -10 -5 0 -7 5 -4 10 3 6 8 10 11 10 2 0 4
-4 4 -10z m-2388 -32 c-6 -6 -32 -14 -57 -18 -54 -8 -47 5 10 19 56 13 61 13
47 -1z m-1125 -10 c-1 -37 4 -47 21 -42 13 5 14 4 3 -4 -10 -7 -11 -11 -1 -17
8 -5 18 -1 26 10 8 10 16 16 19 13 3 -2 -4 -13 -14 -22 -18 -17 -21 -17 -45
-1 -18 12 -26 26 -26 46 0 16 4 29 9 29 5 0 9 -6 8 -12z m3503 2 c-20 -13 -33
-13 -25 0 3 6 14 10 23 10 15 0 15 -2 2 -10z m-4345 -25 c-22 -8 -49 -13 -60
-13 -11 0 0 6 25 13 59 17 87 17 35 0z m3196 -22 c13 -16 12 -17 -3 -4 -17 13
-22 21 -14 21 2 0 10 -8 17 -17z m-141 -13 c0 -17 -27 -65 -44 -79 -10 -8 -20
-9 -32 -3 -14 8 -12 14 21 51 37 41 55 51 55 31z m-1354 -72 c-1 -13 -6 -22
-12 -21 -6 1 -18 -14 -29 -33 -10 -19 -22 -34 -27 -34 -14 0 -9 16 12 35 11
10 17 22 14 26 -3 5 0 9 7 9 7 0 9 3 6 7 -7 7 11 33 23 33 4 0 7 -10 6 -22z
m64 -3 c11 -13 10 -14 -4 -9 -9 3 -16 10 -16 15 0 13 6 11 20 -6z m70 -16 c0
-4 -8 -5 -17 -2 -16 6 -16 4 -5 -9 15 -19 1 -58 -21 -58 -9 0 -9 -2 1 -8 7 -5
10 -16 6 -25 -7 -19 -13 -20 -32 -9 -10 7 -9 16 4 47 12 30 18 35 26 24 7 -10
8 -8 5 9 -7 32 1 52 19 45 8 -3 14 -9 14 -14z m51 -3 c5 3 9 0 9 -5 0 -6 -9
-11 -20 -11 -20 0 -26 11 -13 24 4 4 9 2 11 -3 2 -6 8 -9 13 -5z m69 -28 c0
-9 3 -8 10 2 17 27 22 2 9 -54 -7 -31 -10 -58 -8 -61 7 -6 118 -23 123 -17 3
2 2 26 -1 53 -5 40 -3 49 9 49 19 0 26 -24 34 -123 l7 -78 -24 5 c-13 3 -78
17 -143 31 -120 25 -149 35 -107 35 12 0 20 4 17 9 -3 5 3 33 13 62 20 60 21
63 21 84 0 8 9 15 20 15 11 0 20 -6 20 -12z m-84 -26 c-15 -3 -16 -6 -5 -12
18 -12 6 -22 -15 -14 -12 4 -14 10 -6 19 5 6 7 14 4 18 -3 3 5 3 18 -1 20 -5
21 -7 4 -10z m-1166 -14 c0 -7 -17 -26 -38 -42 -20 -16 -30 -21 -21 -10 9 10
14 26 12 34 -3 11 -2 12 4 3 7 -9 12 -8 23 7 17 23 20 24 20 8z m83 -35 c-6
-15 -4 -16 8 -6 11 9 18 8 33 -3 17 -12 18 -14 3 -14 -9 0 -17 5 -17 12 0 9
-3 9 -11 1 -15 -15 -39 -5 -32 13 3 8 9 14 14 14 4 0 5 -8 2 -17z m1067 7 c8
-5 11 -10 5 -10 -5 0 -17 5 -25 10 -8 5 -10 10 -5 10 6 0 17 -5 25 -10z
m-1127 -24 c-10 -13 -20 -22 -22 -20 -4 4 29 44 36 44 2 0 -4 -11 -14 -24z
m3942 16 c-5 -4 -10 -13 -10 -21 0 -17 -131 -85 -145 -76 -6 4 -10 20 -10 37
0 25 3 29 20 25 12 -3 23 1 28 9 5 8 21 19 38 23 36 11 93 13 79 3z m-2815
-22 c0 -5 -7 -7 -15 -4 -8 4 -15 8 -15 10 0 2 7 4 15 4 8 0 15 -4 15 -10z
m330 -6 c0 -9 -5 -14 -12 -12 -18 6 -21 28 -4 28 9 0 16 -7 16 -16z m83 -17
c11 -35 7 -40 -27 -31 -21 5 -26 12 -26 36 0 24 4 29 22 26 13 -2 25 -14 31
-31z m-1672 -10 c-10 -9 -11 -8 -5 6 3 10 9 15 12 12 3 -3 0 -11 -7 -18z m89
-15 c0 -13 -30 -52 -41 -52 -14 0 -11 18 8 40 18 20 33 26 33 12z m240 -2 c0
-12 -35 -31 -44 -23 -3 3 -6 -1 -6 -9 0 -18 -20 -28 -56 -28 -34 0 -30 24 9
49 33 21 97 29 97 11z m1267 4 c-3 -3 -12 -4 -19 -1 -8 3 -5 6 6 6 11 1 17 -2
13 -5z m88 -44 c3 -5 1 -10 -4 -10 -6 0 -11 5 -11 10 0 6 2 10 4 10 3 0 8 -4
11 -10z m95 -4 c0 -8 -4 -17 -8 -20 -4 -2 -8 4 -8 15 0 10 4 19 8 19 4 0 8 -6
8 -14z m78 -3 c-2 -10 -7 -21 -13 -25 -6 -5 -5 -8 3 -8 6 0 12 -4 12 -10 0 -5
-9 -10 -20 -10 -13 0 -20 7 -20 19 0 11 -4 23 -10 26 -20 12 -9 25 20 25 24 0
30 -4 28 -17z m72 8 c0 -5 2 -16 5 -23 4 -11 -3 -13 -30 -10 -26 3 -35 9 -35
23 0 14 7 19 30 19 17 0 30 -4 30 -9z m70 -26 c19 -19 30 -35 26 -35 -4 0 -16
10 -27 23 -16 19 -20 20 -29 7 -5 -9 -10 -10 -10 -3 0 6 -3 18 -6 27 -10 26
10 18 46 -19z m1935 15 c22 0 23 -3 15 -27 -5 -16 -14 -47 -20 -70 -7 -29 -16
-43 -27 -43 -9 0 -25 -8 -36 -17 -19 -18 -19 -17 -12 17 4 19 18 56 31 82 13
26 22 53 21 60 -2 7 -2 10 0 6 3 -5 15 -8 28 -8z m-2177 -52 c37 -17 96 -41
132 -54 62 -22 63 -23 28 -24 -21 0 -38 -4 -38 -10 0 -19 -37 -10 -93 24 -95
57 -89 59 -183 -37 -46 -47 -84 -81 -84 -77 0 5 27 41 60 80 34 40 58 75 54
79 -7 7 -104 -97 -142 -153 -37 -54 -42 -22 -7 34 l27 42 -37 -27 c-20 -16
-42 -36 -48 -45 -28 -39 -69 -55 -133 -51 -56 2 -63 1 -69 -18 -4 -12 -13 -20
-22 -19 -9 2 -18 -3 -20 -9 -3 -7 3 -13 12 -13 9 0 15 -3 13 -7 -2 -5 -10 -25
-18 -45 -10 -29 -20 -38 -37 -38 -29 0 -28 9 11 100 l32 75 81 -4 c48 -2 89 2
102 8 20 11 37 26 170 147 95 87 110 90 209 42z m-1252 -16 c-17 -16 -18 -16
-5 5 7 12 15 20 18 17 3 -2 -3 -12 -13 -22z m168 -67 c-4 -8 -15 -15 -25 -15
-12 0 -16 5 -13 15 4 8 15 15 25 15 12 0 16 -5 13 -15z m1699 -2 c-13 -2 -33
-2 -45 0 -13 2 -3 4 22 4 25 0 35 -2 23 -4z m-1828 -17 c20 -8 25 -14 15 -17
-8 -3 -31 3 -50 12 -42 21 -13 26 35 5z m232 8 c-3 -3 -12 -4 -19 -1 -8 3 -5
6 6 6 11 1 17 -2 13 -5z m83 -14 c11 -8 7 -9 -15 -4 -37 8 -45 14 -19 14 10 0
26 -5 34 -10z m65 -18 c-3 -3 -11 0 -18 7 -9 10 -8 11 6 5 10 -3 15 -9 12 -12z
m1120 -2 c3 -5 1 -10 -4 -10 -6 0 -11 5 -11 10 0 6 2 10 4 10 3 0 8 -4 11 -10z
m-1018 -16 c-3 -3 -12 -4 -19 -1 -8 3 -5 6 6 6 11 1 17 -2 13 -5z m60 -10 c-3
-3 -12 -4 -19 -1 -8 3 -5 6 6 6 11 1 17 -2 13 -5z m77 -24 l25 -9 -39 -88
c-21 -48 -77 -176 -124 -283 -47 -106 -83 -196 -81 -199 4 -4 30 49 70 145 12
29 18 35 27 26 7 -7 20 -12 30 -12 15 0 16 -4 8 -25 -12 -30 -13 -30 90 -50
74 -14 75 -14 92 8 10 12 15 30 12 39 -3 10 0 27 6 39 7 12 14 31 15 43 2 11
8 37 13 56 38 136 55 198 59 218 4 17 12 22 36 22 29 0 30 0 23 -42 -3 -24
-26 -135 -49 -248 -39 -189 -44 -205 -65 -208 -25 -4 -29 -20 -7 -28 16 -7 20
-51 7 -72 -7 -9 -79 3 -323 57 -173 38 -411 91 -529 116 -118 26 -257 57 -308
69 l-93 21 153 150 c84 83 180 175 213 205 l60 54 -45 -49 c-31 -34 -37 -44
-19 -33 17 11 31 13 40 7 11 -7 11 -9 -4 -9 -9 0 -16 -3 -15 -8 2 -4 -28 -39
-67 -77 -38 -38 -69 -73 -68 -77 2 -4 -6 -8 -17 -8 -13 0 -18 -5 -14 -15 4 -9
1 -15 -8 -15 -7 0 -19 -9 -26 -20 -7 -11 -19 -20 -28 -20 -8 0 -12 -4 -9 -10
3 -5 1 -10 -5 -10 -6 0 -16 -13 -21 -30 -6 -16 -18 -30 -27 -31 -35 -2 124
-38 503 -114 94 -19 181 -37 195 -40 17 -4 21 -3 12 3 -11 8 -8 21 15 68 15
33 31 61 36 62 4 2 7 10 7 18 0 8 10 31 23 52 13 20 37 64 54 97 50 99 138
265 140 265 1 0 13 -4 27 -10z m-644 -14 c0 -3 -4 -8 -10 -11 -5 -3 -10 -1
-10 4 0 6 5 11 10 11 6 0 10 -2 10 -4z m3290 -30 c0 -2 -8 -10 -17 -17 -16
-13 -17 -12 -4 4 13 16 21 21 21 13z m-1973 -30 c-10 -8 -45 -22 -77 -32 -33
-11 -60 -21 -60 -24 0 -12 160 -29 223 -23 47 4 67 2 67 -6 0 -15 -161 -15
-245 0 -59 10 -67 9 -141 -21 -43 -17 -95 -40 -114 -51 l-35 -21 30 26 c17 14
67 41 112 59 50 19 82 37 80 45 -3 17 98 60 143 61 32 0 33 -1 17 -13z m-523
-2 c9 -4 16 -18 16 -34 l0 -28 -52 15 c-63 18 -60 16 -52 37 6 16 56 22 88 10z
m-403 -22 c-7 -2 -18 1 -23 6 -8 8 -4 9 13 5 13 -4 18 -8 10 -11z m-81 -2 c0
-6 -12 -8 -26 -6 -39 7 -42 16 -6 16 18 0 32 -5 32 -10z m-235 -20 c8 -13 -15
-13 -35 0 -12 8 -11 10 7 10 12 0 25 -4 28 -10z m108 3 c-7 -2 -19 -2 -25 0
-7 3 -2 5 12 5 14 0 19 -2 13 -5z m187 -3 c0 -5 -2 -10 -4 -10 -3 0 -8 5 -11
10 -3 6 -1 10 4 10 6 0 11 -4 11 -10z m30 0 c0 -5 -5 -10 -11 -10 -5 0 -7 5
-4 10 3 6 8 10 11 10 2 0 4 -4 4 -10z m-110 -10 c0 -6 -11 -8 -27 -4 -40 10
-41 14 -5 14 18 0 32 -5 32 -10z m175 0 c-3 -5 -10 -10 -16 -10 -5 0 -9 5 -9
10 0 6 7 10 16 10 8 0 12 -4 9 -10z m-305 -10 c13 -9 13 -10 0 -9 -8 0 -24 4
-35 9 l-20 9 20 0 c11 0 27 -4 35 -9z m227 -13 c4 -7 0 -8 -11 -4 -10 4 -24 7
-32 7 -8 0 -14 4 -14 9 0 11 49 1 57 -12z m-117 -7 c0 -6 -11 -8 -27 -4 -40
10 -41 14 -5 14 18 0 32 -5 32 -10z m-120 -8 c0 -5 -13 -7 -30 -4 -16 2 -30 6
-30 8 0 2 14 4 30 4 17 0 30 -4 30 -8z m195 -2 c3 -5 -1 -10 -9 -10 -8 0 -18
5 -21 10 -3 6 1 10 9 10 8 0 18 -4 21 -10z m-325 -12 c0 -12 -38 -10 -45 2 -4
6 5 9 19 8 15 -1 26 -6 26 -10z m1588 -64 c35 -20 61 -39 58 -41 -10 -10 -133
58 -161 89 l-30 32 35 -22 c19 -13 63 -39 98 -58z m-1513 45 c-3 -4 -12 -6
-20 -3 -8 4 -13 10 -10 15 3 4 12 6 20 3 8 -4 13 -10 10 -15z m122 15 c-3 -3
-12 -4 -19 -1 -8 3 -5 6 6 6 11 1 17 -2 13 -5z m33 -4 c0 -5 -5 -10 -11 -10
-5 0 -7 5 -4 10 3 6 8 10 11 10 2 0 4 -4 4 -10z m-120 -10 c0 -5 -4 -10 -10
-10 -5 0 -10 5 -10 10 0 6 5 10 10 10 6 0 10 -4 10 -10z m225 0 c7 -12 -12
-12 -40 0 -18 8 -17 9 7 9 15 1 30 -3 33 -9z m285 -13 c0 -5 -14 -48 -32 -93
-29 -78 -33 -84 -60 -84 -15 0 -28 3 -28 6 0 4 18 48 41 99 34 78 43 92 60 88
10 -3 19 -10 19 -16z m-667 6 c-7 -2 -19 -2 -25 0 -7 3 -2 5 12 5 14 0 19 -2
13 -5z m256 -9 c2 -2 -10 -4 -27 -4 -18 0 -32 5 -32 10 0 9 47 4 59 -6z m188
10 c-3 -3 -12 -4 -19 -1 -8 3 -5 6 6 6 11 1 17 -2 13 -5z m348 -14 c6 -10 -66
-1 -77 9 -4 4 10 5 32 3 22 -2 42 -8 45 -12z m468 13 c-7 -2 -21 -2 -30 0 -10
3 -4 5 12 5 17 0 24 -2 18 -5z m-923 -13 c0 -5 -2 -10 -4 -10 -3 0 -8 5 -11
10 -3 6 -1 10 4 10 6 0 11 -4 11 -10z m845 -4 c-36 -15 -92 -30 -84 -22 8 9
82 35 99 35 8 0 2 -6 -15 -13z m343 -8 c19 -15 21 -19 7 -13 -11 5 -69 12
-129 16 -59 4 -111 10 -114 13 -3 3 43 6 102 6 96 0 111 -2 134 -22z m-1431 6
c-3 -3 -12 -4 -19 -1 -8 3 -5 6 6 6 11 1 17 -2 13 -5z m43 -4 c0 -5 -2 -10 -4
-10 -3 0 -8 5 -11 10 -3 6 -1 10 4 10 6 0 11 -4 11 -10z m-145 -10 c18 -8 17
-9 -7 -9 -15 -1 -30 4 -33 9 -7 12 12 12 40 0z m223 4 c35 -10 26 -20 -13 -16
-19 2 -32 8 -29 13 6 10 11 11 42 3z m567 -14 c7 -12 -19 -12 -55 0 -22 7 -21
8 12 9 20 1 40 -3 43 -9z m-697 -6 c12 -4 22 -10 22 -13 0 -10 -59 -1 -66 10
-6 10 11 11 44 3z m-123 -14 c16 -7 13 -8 -13 -6 -17 2 -35 6 -39 9 -9 10 28
7 52 -3z m374 -6 c11 -11 -7 -10 -34 3 l-30 14 30 -6 c16 -4 32 -9 34 -11z
m-129 -4 c12 -8 12 -10 -5 -9 -11 0 -29 4 -40 9 -18 8 -18 9 5 9 14 0 32 -4
40 -9z m-160 -10 c0 -13 -11 -13 -30 0 -12 8 -11 10 8 10 12 0 22 -4 22 -10z
m725 0 c4 -6 -11 -7 -42 -3 -63 8 -67 13 -10 13 25 0 49 -4 52 -10z m572 -14
c35 -19 31 -19 -35 -2 -40 11 -68 12 -110 5 -76 -12 -87 -10 -32 7 54 16 137
11 177 -10z m-1398 -2 c2 -2 -7 -4 -22 -4 -14 0 -29 5 -32 10 -6 10 42 4 54
-6z m138 10 c-3 -3 -12 -4 -19 -1 -8 3 -5 6 6 6 11 1 17 -2 13 -5z m238 -5 c5
-7 -5 -8 -32 -3 -51 9 -54 14 -10 14 20 0 39 -5 42 -11z m-180 -9 c-3 -5 -10
-10 -16 -10 -5 0 -9 5 -9 10 0 6 7 10 16 10 8 0 12 -4 9 -10z m55 -6 c0 -2 -9
-4 -21 -4 -11 0 -18 4 -14 10 5 8 35 3 35 -6z m-160 -4 c22 -7 21 -8 -12 -9
-21 -1 -38 4 -38 9 0 11 14 11 50 0z m365 0 c18 -8 17 -9 -7 -9 -15 -1 -30 4
-33 9 -7 12 12 12 40 0z m318 -1 c20 -5 37 -15 37 -21 0 -5 -6 -8 -14 -5 -8 3
-31 9 -50 13 -20 3 -33 10 -30 15 7 11 11 11 57 -2z m-433 -9 c8 -5 12 -11 10
-13 -8 -8 -70 5 -70 14 0 12 41 11 60 -1z m1125 0 c13 -6 15 -9 5 -9 -8 0 -22
4 -30 9 -18 12 -2 12 25 0z m-1512 -7 c-7 -2 -19 -2 -25 0 -7 3 -2 5 12 5 14
0 19 -2 13 -5z m227 -9 c0 -2 -7 -4 -15 -4 -8 0 -15 4 -15 10 0 5 7 7 15 4 8
-4 15 -8 15 -10z m-107 -3 c9 -1 17 -4 17 -9 0 -4 -18 -6 -40 -4 -22 2 -38 8
-35 12 3 5 13 7 23 5 9 -2 25 -4 35 -4z m142 -1 c3 -5 -1 -10 -9 -10 -9 0 -16
5 -16 10 0 6 4 10 9 10 6 0 13 -4 16 -10z m219 4 c27 -10 18 -21 -14 -16 -16
2 -30 8 -30 13 0 10 21 12 44 3z m-109 -27 c7 -6 2 -8 -15 -3 -14 3 -31 6 -37
6 -7 0 -13 5 -13 10 0 12 50 2 65 -13z m479 -8 c8 -9 -1 -10 -38 -4 -78 11
-102 26 -32 21 32 -3 64 -10 70 -17z m-651 4 c-7 -2 -19 -2 -25 0 -7 3 -2 5
12 5 14 0 19 -2 13 -5z m-136 -9 c-3 -3 -12 -4 -19 -1 -8 3 -5 6 6 6 11 1 17
-2 13 -5z m418 -4 c7 -12 -22 -12 -50 0 -17 7 -15 9 12 9 17 1 35 -3 38 -9z
m-375 -10 c0 -5 -2 -10 -4 -10 -3 0 -8 5 -11 10 -3 6 -1 10 4 10 6 0 11 -4 11
-10z m219 4 c17 -4 28 -10 26 -14 -5 -8 -62 4 -73 15 -7 7 9 6 47 -1z m-129
-14 c21 -6 18 -7 -17 -8 -24 0 -40 4 -37 9 6 10 19 10 54 -1z m623 0 c9 0 17
-7 17 -16 0 -12 -5 -15 -22 -9 -13 4 -38 9 -55 12 -18 3 -33 10 -33 15 0 7 15
8 38 4 20 -3 45 -6 55 -6z m1352 -16 c6 -2 -8 -1 -30 2 -22 3 -44 10 -49 14
-8 8 53 -4 79 -16z m-1725 6 c24 -8 24 -8 -7 -9 -17 -1 -35 4 -38 9 -7 11 9
11 45 0z m1778 -58 c3 -72 -12 -78 -23 -9 -3 23 -9 50 -12 60 -4 14 0 18 14
15 15 -3 19 -14 21 -66z m-1893 37 c11 -11 0 -11 -44 -3 -17 4 -31 11 -31 16
0 11 60 1 75 -13z m113 -15 c7 -2 11 -8 7 -13 -3 -6 -11 -8 -18 -6 -7 2 -25 6
-40 9 -15 4 -25 11 -22 16 6 9 33 7 73 -6z m636 -42 c-23 -3 -34 -35 -34 -93
0 -16 -3 -28 -7 -28 -22 4 -33 -3 -34 -18 -1 -16 -2 -15 -6 1 -4 15 -7 16 -15
5 -7 -10 -8 -2 -4 26 3 22 6 57 6 77 0 30 4 37 23 40 30 4 99 -5 71 -10z m249
-3 c-13 -4 -23 -17 -23 -28 0 -13 -9 -20 -30 -23 -27 -4 -30 -2 -30 24 0 24
-4 28 -30 28 -28 0 -30 -2 -30 -40 0 -38 -13 -54 -23 -27 -3 9 -7 9 -20 -1
-13 -11 -17 -10 -26 7 -6 11 -11 32 -11 48 l0 28 122 -3 c84 -3 116 -7 101
-13z m116 7 c-8 -8 -78 -10 -85 -3 -4 4 14 7 41 7 27 0 46 -2 44 -4z m-316
-113 c47 17 57 18 57 3 0 -12 -10 -16 -40 -16 -35 0 -40 3 -39 23 1 18 2 18 6
4 3 -10 10 -17 16 -14z m148 2 c9 2 23 -1 30 -6 10 -7 3 -9 -20 -7 -20 2 -36
9 -38 18 -3 10 -2 11 4 4 4 -6 15 -10 24 -9z m-141 -45 c0 -6 10 -15 23 -20
20 -8 19 -8 -8 -7 -22 1 -31 7 -31 20 0 9 4 17 8 17 4 0 8 -5 8 -10z m-100
-20 c0 -5 -6 -10 -14 -10 -8 0 -18 5 -21 10 -3 6 3 10 14 10 12 0 21 -4 21
-10z m280 0 c0 -13 -30 -13 -50 0 -11 7 -7 10 18 10 17 0 32 -4 32 -10z m130
0 c0 -5 -8 -10 -17 -10 -15 0 -16 2 -3 10 19 12 20 12 20 0z m698 -149 c34
-76 62 -148 62 -160 0 -21 -4 -21 -180 -21 l-180 0 0 119 c0 65 -3 133 -6 150
l-6 31 53 1 c30 0 74 4 99 8 100 18 90 26 158 -128z"/>
<path d="M3674 5586 c-3 -8 -4 -31 -2 -52 l3 -39 78 -3 77 -3 0 56 0 55 -75 0
c-56 0 -77 -4 -81 -14z"/>
<path d="M3150 4825 c13 -14 26 -25 28 -25 3 0 -5 11 -18 25 -13 14 -26 25
-28 25 -3 0 5 -11 18 -25z"/>
<path d="M2620 4669 c0 -4 23 -9 50 -11 35 -2 50 1 50 10 0 8 -16 11 -50 10
-27 -1 -50 -5 -50 -9z"/>
<path d="M2852 4663 c-9 -14 -14 -16 -29 -7 -20 12 -83 7 -83 -7 0 -5 -9 -9
-20 -9 -11 0 -20 -6 -20 -12 0 -10 -2 -10 -8 -1 -4 7 -19 10 -35 8 -19 -4 -32
1 -44 15 -10 11 -20 20 -24 20 -3 0 -7 -36 -8 -80 l-2 -80 150 0 c94 0 151 4
152 10 6 120 -7 184 -29 143z m-102 -104 c0 -10 -7 -19 -15 -19 -16 0 -19 9
-9 34 8 20 24 11 24 -15z"/>
<path d="M2531 4503 c1 -43 6 -84 11 -90 7 -9 7 -13 -1 -13 -6 0 -11 -18 -11
-45 0 -34 4 -45 15 -45 13 0 16 12 16 53 -1 92 -4 87 42 87 200 3 297 6 302
12 22 22 -17 28 -172 28 -146 0 -167 -2 -179 -17 -12 -16 -12 -14 -3 14 13 39
8 85 -9 91 -9 3 -12 -16 -11 -75z"/>
<path d="M2619 4429 c-7 -4 -4 -9 6 -13 26 -10 45 -7 45 7 0 13 -33 17 -51 6z"/>
<path d="M2690 4428 c0 -5 14 -8 30 -8 17 0 30 4 30 8 0 4 -13 8 -30 7 -16 0
-30 -3 -30 -7z"/>
<path d="M2777 4428 c4 -7 6 -39 5 -70 l-3 -58 110 0 111 0 0 29 c0 28 -1 29
-47 28 -32 -1 -47 2 -46 9 1 7 -5 10 -15 7 -10 -2 -31 10 -52 31 -33 34 -81
51 -63 24z"/>
<path d="M2582 4358 c2 -45 3 -47 27 -43 29 5 105 -18 94 -28 -3 -4 -1 -7 5
-7 6 0 20 -19 31 -42 l20 -43 -1 98 -1 97 -61 0 -61 -1 28 -24 c16 -14 32 -23
36 -21 4 3 7 -3 7 -13 0 -12 -6 -17 -18 -13 -10 2 -21 8 -23 13 -3 4 -13 6
-23 3 -14 -5 -14 -4 -3 4 12 9 12 13 -2 26 -8 9 -22 16 -30 16 -9 0 -18 6 -21
13 -3 6 -4 -9 -4 -35z"/>
<path d="M3080 4290 l0 -70 109 0 c78 0 110 4 114 13 2 6 2 38 -1 70 l-4 57
-109 0 -109 0 0 -70z"/>
<path d="M2816 4281 c-4 -6 -13 -8 -22 -4 -12 4 -13 1 -4 -21 5 -14 6 -26 2
-26 -4 0 -7 -20 -8 -44 l-1 -44 60 -6 c33 -3 82 -6 108 -6 l48 0 -1 34 c-1 24
-5 33 -15 29 -7 -3 -13 -9 -13 -14 0 -10 -153 -13 -163 -3 -3 3 -3 12 0 20 4
11 27 14 95 14 l89 0 -3 38 -3 37 -82 3 c-46 2 -84 -1 -87 -7z"/>
<path d="M3040 4129 c0 -5 5 -7 10 -4 6 3 10 8 10 11 0 2 -4 4 -10 4 -5 0 -10
-5 -10 -11z"/>
<path d="M4020 4874 c-15 -39 -12 -62 11 -85 l21 -21 -23 -24 c-17 -18 -24
-40 -27 -84 -6 -84 1 -108 33 -104 21 2 27 -3 32 -27 l6 -29 101 0 101 0 -3
85 c-2 47 -7 83 -12 80 -5 -3 -11 -1 -14 3 -3 5 -16 7 -29 5 -32 -6 -57 21
-57 60 0 18 0 44 0 58 0 35 -23 53 -60 46 -27 -6 -30 -4 -36 28 -7 41 -30 46
-44 9z"/>
<path d="M3980 4365 c0 -8 5 -15 10 -15 6 0 10 7 10 15 0 8 -4 15 -10 15 -5 0
-10 -7 -10 -15z"/>
<path d="M3976 4321 c-3 -5 0 -12 6 -14 10 -4 10 -8 -1 -15 -9 -7 -11 -16 -6
-28 5 -11 9 -23 9 -29 1 -5 12 -11 26 -12 22 -2 23 -2 5 6 -17 7 -16 9 12 13
18 2 37 0 43 -6 7 -7 10 -1 10 17 0 16 -5 26 -12 25 -7 -2 -14 8 -17 22 -5 19
-13 26 -38 28 -17 2 -34 -1 -37 -7z m59 -40 c3 -5 2 -12 -3 -15 -5 -3 -9 1 -9
9 0 17 3 19 12 6z"/>
<path d="M3660 4428 c0 -18 2 -20 10 -8 7 12 12 12 22 2 17 -17 25 -15 31 8 4
17 0 20 -29 20 -29 0 -34 -4 -34 -22z"/>
<path d="M3660 4380 c0 -5 5 -10 11 -10 5 0 7 5 4 10 -3 6 -8 10 -11 10 -2 0
-4 -4 -4 -10z"/>
<path d="M3701 4381 c-11 -7 -11 -9 0 -14 8 -3 2 -6 -13 -6 -40 -1 -34 -21 6
-21 29 0 34 3 34 25 0 27 -5 30 -27 16z"/>
<path d="M3493 4410 c-61 -27 -54 -60 16 -90 49 -20 63 -9 59 52 -4 62 -13 67
-75 38z"/>
<path d="M1370 2943 c-13 -15 -12 -16 4 -10 10 4 20 7 22 7 2 0 4 5 4 10 0 15
-13 12 -30 -7z"/>
<path d="M1127 2884 c-11 -11 5 -34 24 -34 22 0 24 11 7 28 -13 13 -22 15 -31
6z"/>
<path d="M1711 2524 c0 -11 3 -14 6 -6 3 7 2 16 -1 19 -3 4 -6 -2 -5 -13z"/>
<path d="M1680 2498 c0 -7 4 -19 9 -26 7 -11 10 -10 15 3 3 9 4 21 0 26 -8 13
-24 11 -24 -3z"/>
<path d="M1645 2490 c4 -6 11 -8 16 -5 14 9 11 15 -7 15 -8 0 -12 -5 -9 -10z"/>
<path d="M1703 2268 c-4 -7 -9 -30 -10 -51 -1 -21 -4 -46 -7 -55 -4 -9 2 -6
13 7 13 17 17 31 11 45 -8 25 -2 49 11 41 5 -4 6 1 3 9 -7 19 -10 20 -21 4z"/>
<path d="M2142 2810 c0 -19 2 -27 5 -17 2 9 2 25 0 35 -3 9 -5 1 -5 -18z"/>
<path d="M2110 2737 c0 -8 7 -14 15 -14 8 0 16 6 19 14 3 8 -2 13 -14 13 -11
0 -20 -6 -20 -13z"/>
<path d="M2100 2671 c0 -12 0 -24 -1 -28 0 -4 3 -9 8 -10 12 -4 15 45 3 52 -6
3 -10 -3 -10 -14z"/>
<path d="M2133 2628 c2 -29 8 -53 13 -52 5 0 24 4 42 9 38 9 53 26 20 22 -19
-2 -23 2 -20 22 3 29 -14 51 -39 51 -16 0 -18 -7 -16 -52z"/>
<path d="M3765 3040 c-3 -5 -1 -10 4 -10 6 0 11 5 11 10 0 6 -2 10 -4 10 -3 0
-8 -4 -11 -10z"/>
<path d="M2564 2152 c-14 -46 -18 -72 -10 -69 13 4 37 92 34 122 -2 11 -13
-13 -24 -53z"/>
<path d="M2698 2053 c7 -3 16 -2 19 1 4 3 -2 6 -13 5 -11 0 -14 -3 -6 -6z"/>
<path d="M2270 1270 c0 -5 12 -10 28 -10 15 -1 54 -7 87 -15 71 -17 83 -18 70
-6 -10 9 -142 41 -169 41 -9 0 -16 -4 -16 -10z"/>
</g>
</svg>
